# xmcd
#
# Track frame offsets:
#	150
#	11271
#	26594
#	38391
#	49803
#	59511
#	69636
#	79707
#	91176
#	106708
#	119939
#	130239
#	142614
#	152313
#	162140
#	180853
#
# Disc length: 2576 seconds
#
# Revision: 4
# Processed by: cddbd v1.5.2PL0 Copyright (c) Steve Scherf et al.
# Submitted via: audiograbber 1.83.01
#
DISCID=b70a0e10
DTITLE=Various Artist - Elite Country [Disc 2]
DYEAR=2002
DGENRE=Country
TTITLE0=Roger Miller - King Of The Road
TTITLE1=Melba Montgomery - No Charge
TTITLE2=Connie Smith - Once A Day
TTITLE3=Frankie Laine - Mule Train
TTITLE4=Dave Dudley - Cowboy Boots
TTITLE5=Faron Young - Hello Walls
TTITLE6=Jimmy Little - Royal Telephone
TTITLE7=Bobbie and Laurie - Through The Eyes Of Love
TTITLE8=Red Simpson - I'm A Truck
TTITLE9=Lynn Anderson - Rose Garden
TTITLE10=Johnny Russell - Jambalaya
TTITLE11=Johhny Cash - I Walk The Line
TTITLE12=Ned Miller - From Jack To A King
TTITLE13=Claude King - The Comancheros
TTITLE14=Wink Martindale - Deck Of Cards
TTITLE15=Lee Conway - I Fought The Law
EXTD=
EXTT0=
EXTT1=
EXTT2=
EXTT3=
EXTT4=
EXTT5=
EXTT6=
EXTT7=
EXTT8=
EXTT9=
EXTT10=
EXTT11=
EXTT12=
EXTT13=
EXTT14=
EXTT15=
PLAYORDER=
